<?xml version="1.0" encoding="UTF-8"?>
<svg id="Layer_2" data-name="Layer 2" xmlns="http://www.w3.org/2000/svg" viewBox="0 0 418.29 349.54">
  <defs>
    <style>
      .cls-1, .cls-2 {
        fill: #fff;
      }

      .cls-2 {
        font-family: Royce-Semibold, Royce;
        font-size: 170.65px;
        font-weight: 600;
      }
    </style>
  </defs>
  <g id="type">
    <g>
      <path class="cls-1" d="m376.39,213.52h0c4.5,1.08,7.17,5.7,5.89,10.14-25.78,88.92-117.17,142.8-208.19,121.07-55.33-13.21-100.64-52.5-121.63-105.13-1.2-3-.49-6.44,1.8-8.72l.06-.06c4.13-4.13,11.1-2.64,13.25,2.79,30.21,76.05,114.36,117.24,193.88,92.66,51.06-15.78,90.54-56.18,105.32-107.18,1.2-4.13,5.45-6.56,9.63-5.56ZM251.46,20.62c54.33,13.08,97.75,53.81,114.26,107.19l12.84-12.84C345.6,24.35,245.42-22.4,154.8,10.56c-55.14,20.06,11.53-10.24,96.65,10.05Z"/>
      <circle class="cls-1" cx="365.73" cy="102.76" r="25.04"/>
      <g>
        <path class="cls-1" d="m151.78,199.1v-33.01c0-13.61,10.42-23.44,24.86-23.44s25.03,9.41,25.03,22.34c0,7.14-3.19,13.1-8.48,16.55,5.21,2.44,8.48,7.22,8.48,13.02v4.54c0,3.86-2.77,6.55-6.64,6.55s-6.55-2.69-6.55-6.55v-2.77c0-5.12-4.2-8.99-10.08-8.99h-13.44v11.76c0,3.78-2.77,6.55-6.64,6.55s-6.55-2.77-6.55-6.55Zm24.11-22.34c7.14,0,12.35-4.96,12.35-11.84s-4.87-11.68-11.51-11.68-11.76,5.38-11.76,12.85v10.67h10.92Z"/>
        <path class="cls-1" d="m239.8,142.66c13.27,0,22.85,7.14,22.85,17.05,0,5.12-2.69,9.49-7.14,12.18,6.22,2.86,9.91,8.4,9.91,15.04,0,10.84-10.08,18.73-24.19,18.73s-24.11-8.48-24.11-20.66v-21.67c0-12.18,9.58-20.66,22.68-20.66Zm-1.09,25.62c6.05,0,10.42-3.19,10.42-7.9s-3.95-7.64-9.32-7.64-9.49,4.45-9.49,10.58v4.96h8.4Zm-8.4,16.72c0,6.13,4.54,10.58,10.92,10.58s10.75-3.86,10.75-9.32-4.87-9.49-11.51-9.49h-10.16v8.23Z"/>
        <path class="cls-1" d="m281.8,149.21c0-3.95,2.6-6.55,6.64-6.55s6.64,2.6,6.64,6.55v49.9c0,3.86-2.6,6.55-6.72,6.55-3.86,0-6.55-2.69-6.55-6.55v-49.9Z"/>
        <path class="cls-1" d="m328.17,154.08h-13.19c-3.11,0-5.21-2.1-5.21-5.38s2.1-5.21,5.21-5.21h39.65c3.11,0,5.21,2.1,5.21,5.38,0,3.11-2.1,5.21-5.21,5.21h-13.19v45.02c0,3.86-2.6,6.55-6.72,6.55-3.86,0-6.55-2.69-6.55-6.55v-45.02Z"/>
        <path class="cls-1" d="m414.09,143.5c2.52,0,4.2,1.68,4.2,4.28s-1.51,5.54-2.69,7.48l-9.32,14.62h4.87c2.6,0,4.2,1.76,4.2,4.37s-1.6,4.2-4.2,4.2h-10.25l-10,15.79h22.09c3.11,0,5.29,2.1,5.29,5.29s-2.18,5.29-5.29,5.29h-36.29c-2.6,0-4.2-1.68-4.2-4.28s1.43-5.54,2.6-7.48l9.32-14.62h-4.96c-2.52,0-4.2-1.76-4.2-4.37s1.68-4.2,4.2-4.2h10.33l10.08-15.79h-22.18c-3.11,0-5.21-2.1-5.21-5.38s2.1-5.21,5.21-5.21h36.37Z"/>
      </g>
      <text class="cls-2" transform="translate(0 238.92)"><tspan x="0" y="0">O</tspan></text>
    </g>
  </g>
</svg>